<mxfile host="app.diagrams.net" modified="2023-07-25T03:33:03.937Z" agent="Mozilla/5.0 (X11; Linux x86_64) AppleWebKit/537.36 (KHTML, like Gecko) Chrome/112.0.0.0 Safari/537.36" version="21.5.0" etag="jPtDUjMbH0RyiLRGBzip" type="github">
  <diagram name="Page-1" id="vRX9xAj6968tFhIzHiVf">
    <mxGraphModel>
      <root>
        <mxCell id="0" />
        <mxCell id="1" parent="0" />
      </root>
    </mxGraphModel>
  </diagram>
</mxfile>
